<?xml version="1.0" encoding="UTF-8"?>
<svg version="1.1" viewBox="0 0 1600 1600" width="1280" height="1280" xmlns="http://www.w3.org/2000/svg">
<path transform="translate(0)" d="m0 0h1600v1600h-1600v-1600z" fill="#FEFEFE"/>
<path transform="translate(0)" d="m0 0h1600v1600h-1600v-1600zm774 134c-0.88 0.05-1.76 0.09-2.66 0.14-15.1 0.77-30.1 2.05-45.2 4.05-1.32 0.17-2.65 0.34-3.97 0.51-89.1 11.5-176 39.8-253 86.5-0.97 0.59-1.95 1.18-2.95 1.78-13 7.86-25.8 15.8-38.1 24.8-2.06 1.49-4.14 2.94-6.23 4.38-8.61 5.95-16.8 12.2-24.9 18.9-3.66 3.02-7.4 5.94-11.2 8.85-5.31 4.13-10.3 8.47-15.2 13-2.09 1.94-4.22 3.83-6.38 5.7-3.89 3.38-7.69 6.87-11.5 10.4-3.27 3.01-6.56 5.99-9.88 8.95-5.95 5.35-11.5 10.9-16.7 17-2.35 2.68-4.77 5.29-7.19 7.9-5.59 6.07-11 12.3-16.3 18.6-1.5 1.74-3.01 3.48-4.52 5.21-6.95 7.95-13.4 16.2-19.6 24.7-1.26 1.71-2.53 3.4-3.81 5.08-38.5 50.7-71.4 110-91.6 170-0.9 2.7-1.83 5.4-2.76 8.1-26.7 77.9-41.5 163 31.2 502 3.63 7.37 7.42 14.6 11.3 21.9 1.5 2.78 2.98 5.57 4.46 8.35 5.19 9.71 10.5 19.3 16.2 28.8 0.49 0.82 0.98 1.64 1.48 2.48 2.27 3.75 4.58 7.46 7.02 11.1 0.42 0.66 0.85 1.31 1.28 1.98 1.12 1.72 2.27 3.42 3.42 5.12 5.02 9.93 0.23 22.4-2.51 32.4-0.42 1.55-0.83 3.11-1.24 4.67-1.21 4.55-2.45 9.1-3.7 13.6-0.34 1.23-0.67 2.46-1.02 3.72-2.35 8.56-4.77 17.1-7.24 25.6-4.07 14.1-7.91 28.3-11.7 42.5-1.86 6.97-3.74 13.9-5.61 20.9-0.19 0.69-0.38 1.39-0.57 2.11-3.58 13.3-7.22 26.5-10.9 39.7-5.11 18.4-5.11 18.4-10.1 36.8-0.48 1.82-0.97 3.64-1.46 5.45-3.8 10.7-3.8 10.7-3.36 21.2 0.53-0.19 1.06-0.37 1.61-0.57 5.81-1.99 11.6-3.57 17.6-4.99 0.95-0.23 1.91-0.46 2.89-0.7 3.02-0.73 6.04-1.45 9.07-2.18 16.8-4.03 16.8-4.03 33.5-8.61 5.61-1.62 11.3-3.03 16.9-4.47 3.78-0.96 7.57-1.93 11.4-2.91 0.8-0.2 1.6-0.41 2.43-0.62 8.98-2.3 18-4.64 26.9-6.99 1.78-0.46 3.57-0.93 5.35-1.4 8.78-2.29 17.5-4.61 26.3-7.06 9.82-2.75 19.7-5.25 29.6-7.75 10.8-2.72 21.5-5.45 32.2-8.46 0.76-0.22 1.51-0.43 2.29-0.65 3.51-0.98 7.01-1.98 10.5-3 16.8-4.74 16.8-4.74 24.3-0.99 1.25 0.74 2.49 1.51 3.71 2.29 1.4 0.83 2.79 1.67 4.18 2.5 1.05 0.64 1.05 0.64 2.12 1.3 3.23 1.96 6.53 3.79 9.83 5.64 1.33 0.74 2.66 1.49 3.98 2.23 4.75 2.66 9.51 5.31 14.3 7.95 0.76 0.43 1.52 0.85 2.3 1.28 12.9 7.14 26.2 13.5 39.7 19.5 0.71 0.32 1.42 0.64 2.15 0.97 12.8 5.81 25.8 11.4 38.8 16.6 0.95 0.38 1.89 0.76 2.86 1.15 16.8 6.64 33.8 11.9 51.1 16.8 1.37 0.39 1.37 0.39 2.76 0.8 5.07 1.45 10.2 2.85 15.2 4.2 1.08 0.29 1.08 0.29 2.18 0.59 24 6.47 48.3 10.6 72.9 13.7 0.98 0.12 1.95 0.25 2.95 0.38 26.2 3.34 52.4 4.76 78.9 4.68h3.86c21.5-0.05 42.8-0.91 64.2-3.31 0.66-0.07 1.33-0.15 2.01-0.22 9.69-1.06 19.4-2.33 29-3.78 1.06-0.16 1.06-0.16 2.14-0.32 46.1-6.96 92.4-17.3 136-35.3 3.46-1.43 6.96-2.7 10.5-3.96 17-6.24 33.6-13.9 49.6-22.3 2.45-1.27 4.9-2.52 7.35-3.76 19.6-10 38.6-20.9 56.9-33.1 1.88-1.25 3.76-2.48 5.65-3.72 13.1-8.61 26-17.7 38.3-27.6 0.78-0.62 1.56-1.24 2.37-1.88 2.55-2.03 5.09-4.07 7.63-6.12 0.85-0.69 1.71-1.38 2.59-2.09 18.4-14.9 35.6-30.9 52.3-47.6 2.17-2.18 4.35-4.35 6.54-6.53 1.41-1.41 2.82-2.83 4.23-4.24 0.64-0.64 1.28-1.28 1.94-1.93 3.79-3.81 7.39-7.73 10.9-11.8 2.27-2.61 4.63-5.13 6.99-7.66 4.78-5.18 9.23-10.6 13.6-16.1 0.81-1.01 1.61-2.02 2.45-3.07 16-20.1 30.9-41.2 44.6-62.9 1-1.58 1-1.58 2.01-3.19 13-20.8 24.2-42.8 35-64.8 0.31-0.64 0.63-1.28 0.95-1.94 35-71.8 54.2-151 59.9-231 0.13-1.79 0.27-3.58 0.41-5.37 0.62-8 0.92-15.9 0.95-24 0.01-1.2 0.02-2.4 0.02-3.64 0.02-3.88 0.03-7.76 0.03-11.6v-2.01c0.02-48-4.72-95.5-14.9-142-0.26-1.2-0.26-1.2-0.52-2.42-11.2-51.3-28.2-103-52.8-150-1.11-2.1-2.2-4.21-3.29-6.33-19.3-37.2-41.9-72.5-67.7-106-0.89-1.15-1.78-2.3-2.68-3.45-8.79-11.3-18-22.2-27.7-32.7-2.37-2.57-4.71-5.16-7.05-7.77-13.9-15.6-13.9-15.6-29.1-29.8-2.67-2.37-5.25-4.79-7.84-7.24-5.79-5.46-11.6-10.7-17.8-15.7-2.68-2.17-5.28-4.4-7.89-6.66-23.2-20.1-48.8-37.5-74.9-53.6-0.65-0.4-1.31-0.81-1.98-1.23-19.3-11.9-39.4-22.4-59.9-31.9-3.7-1.72-7.35-3.5-11-5.34-4.99-2.51-10-4.78-15.2-6.98-0.91-0.39-1.82-0.78-2.76-1.18-6.92-2.92-13.9-5.52-21-7.94-2.75-0.94-5.47-1.92-8.18-2.98-79.1-30.5-168-42.9-252-38.6z" fill="#000100"/>
<path transform="translate(878)" d="m0 0h722v1600h-1587c4.13-4.13 6.74-5.1 12.2-6.37 0.8-0.2 1.6-0.4 2.42-0.6 2.6-0.65 5.2-1.28 7.81-1.91 1.8-0.44 3.61-0.89 5.41-1.34 3.53-0.88 7.06-1.76 10.6-2.63 5.17-1.28 10.3-2.65 15.4-4.09 10.8-2.98 21.5-5.8 32.3-8.62 0.89-0.23 1.77-0.47 2.68-0.71 10.5-2.75 21-5.46 31.6-8.05 4.5-1.11 8.92-2.33 13.3-3.74 5.41-1.73 10.9-3.05 16.4-4.3 5.87-1.36 11.7-2.91 17.5-4.52 7.95-2.2 15.9-4.27 23.9-6.24 7.28-1.8 14.5-3.7 21.7-5.82 6.3-1.75 12.7-3.28 19-4.85 5.29-1.31 10.6-2.67 15.8-4.21 7.23-2.12 14.5-3.92 21.9-5.72 8.08-1.99 16.1-4.12 24.1-6.28 38.8-10.4 38.8-10.4 56.5-15 0.92-0.24 1.85-0.48 2.8-0.73 4.55-1.17 9.11-2.32 13.7-3.44 7.76-1.91 15.4-3.88 22.9-6.58 11.5-3.96 19.6-5.64 31-0.39 4.33 2.15 8.53 4.52 12.7 6.98 6.49 3.83 13.2 7 20 10.2 2.14 1.03 4.28 2.07 6.42 3.1 7.97 3.82 16 7.52 24.2 10.8 2.05 0.81 4.09 1.63 6.13 2.46 7.36 2.99 14.8 5.78 22.2 8.38 4.65 1.62 9.24 3.34 13.8 5.13 11.3 4.32 23 7.66 34.6 11.1 0.96 0.29 0.96 0.29 1.95 0.59 10.8 3.25 21.7 6.2 32.6 8.91 0.78 0.19 1.56 0.39 2.37 0.59 13.3 3.3 26.6 6.33 40.1 8.91 1.05 0.21 2.1 0.41 3.18 0.62 17.9 3.5 35.9 6.01 54 7.88 3.2 0.33 6.39 0.68 9.58 1.06 72.8 8.53 150 6.51 222-6.56 0.97-0.17 1.93-0.34 2.93-0.51 48.1-8.4 95.5-21.8 141-39.2 0.8-0.3 1.59-0.6 2.41-0.91 14.1-5.33 27.9-11.1 41.5-17.4 0.72-0.33 1.44-0.66 2.19-1 3.65-1.68 7.29-3.38 10.9-5.11 2.12-1 4.23-1.98 6.35-2.96 19.4-9.03 38-19.3 56.5-29.9 0.82-0.47 1.64-0.94 2.49-1.43 11.2-6.48 22.1-13.5 32.9-20.7 0.62-0.42 1.24-0.84 1.89-1.26 9.04-6.03 17.9-12.3 26.7-18.6 0.94-0.67 1.89-1.35 2.86-2.04 24-17.1 46.6-36.2 68.2-56.2 1.48-1.36 2.97-2.7 4.46-4.05 7.82-7.09 15.4-14.4 22.8-21.9 1.98-1.99 3.98-3.97 5.97-5.96 8.36-8.35 8.36-8.35 16.2-17.2 2.5-2.92 5.17-5.69 7.82-8.49 5.47-5.86 10.6-11.9 15.6-18.2 1.02-1.25 2.04-2.5 3.05-3.75 9.8-12 19.5-24 28.4-36.7 2.22-3.15 4.5-6.25 6.8-9.34 4.17-5.62 8.17-11.3 11.9-17.2 1.96-3.13 3.96-6.23 5.98-9.32 3.89-5.99 7.76-12 11.4-18.1 1.54-2.6 3.1-5.19 4.67-7.78 4.36-7.22 8.55-14.5 12.7-21.9 1.37-2.46 2.77-4.91 4.21-7.34 5.22-8.9 9.61-18.1 14-27.4 1.33-2.82 2.72-5.61 4.13-8.39 4.66-9.23 9.13-18.6 12.9-28.2 1.22-3.07 2.56-6.09 3.9-9.12 2.56-5.94 4.77-12 6.87-18.1 1.58-4.54 3.29-8.99 5.13-13.4 6.45-15.9 11.5-32.4 16.1-48.9 0.25-0.89 0.5-1.77 0.76-2.69 10.2-36.3 17.6-72.9 22.9-110 0.22-1.53 0.22-1.53 0.45-3.09 4.84-34 6.41-67.5 6.25-102-0.01-3.96-0.01-7.92 0-11.9 0.03-28.4-0.75-56.7-4.2-85-0.17-1.47-0.34-2.94-0.52-4.4-0.52-4.31-1.05-8.61-1.6-12.9-0.16-1.24-0.31-2.49-0.48-3.77-3.35-26-8.31-51.8-14.5-77.2-0.24-1-0.49-2-0.74-3.02-14.1-57.4-33.9-115-62.2-167-1.73-3.18-3.34-6.4-4.93-9.64-7.76-15.9-16.9-31.1-26.1-46.2-0.39-0.64-0.79-1.28-1.19-1.95-16.3-26.5-33.9-52.8-53.8-76.7-1.98-2.37-3.9-4.78-5.81-7.2-6.99-8.76-14.4-17.2-21.9-25.5-1.41-1.79-2.35-3.59-3.3-5.65h-2c-1.48-1.47-1.48-1.47-3.19-3.5-0.62-0.73-1.23-1.45-1.87-2.2-0.64-0.76-1.28-1.52-1.94-2.3-1.22-1.44-2.45-2.88-3.69-4.31-0.54-0.64-1.08-1.27-1.63-1.93-1.67-1.85-1.67-1.85-3.89-3.37-0.59-0.46-1.18-0.92-1.79-1.39v-2c-0.59-0.25-1.18-0.5-1.79-0.76-2.5-1.4-3.83-2.9-5.65-5.12-2.63-3.12-5.35-5.59-8.56-8.12v-2c-0.9-0.4-0.9-0.4-1.83-0.8-2.27-1.26-3.34-2.35-4.92-4.39-2.69-3.25-5.57-5.93-8.78-8.66-3.23-2.81-6.34-5.73-9.47-8.65-4.93-4.59-9.89-9.11-15-13.5-1.48-1.3-1.48-1.3-3-2.63-8.35-7.29-17-14.1-25.9-20.8-2.1-1.58-4.19-3.16-6.28-4.75-29.3-22.2-60.1-42-92-60.2-2.32-1.33-4.63-2.67-6.93-4.03-7.86-4.63-16-8.55-24.2-12.4-3.45-1.6-6.86-3.28-10.2-5.02-31.3-16.1-64.2-28.4-97.6-39.2-3.94-1.29-7.84-2.65-11.7-4.1-5.21-1.93-10.5-3.42-15.9-4.84-0.96-0.26-1.93-0.52-2.92-0.78l-5.76-1.53c-2.13-0.57-4.25-1.16-6.38-1.75-21.4-5.95-43.3-10.1-65.2-13.9-0.69-0.12-1.39-0.24-2.1-0.37-17.1-2.99-34.2-5.94-51.5-7.69-0.93-0.1-1.86-0.2-2.82-0.3-0.79-0.08-1.59-0.15-2.41-0.23-2.18-0.41-2.18-0.41-6.18-2.41z" fill="#FEFEFE"/>
<path transform="translate(528 423)" d="m0 0c4.09 0.66 8.05 0.69 12.2 0.71 1.75 0.02 3.49 0.05 5.23 0.07 2.72 0.04 5.44 0.07 8.15 0.08 27.5 0.16 27.5 0.16 37 9.59 10.8 12.8 17.2 29.6 23.4 45 0.59 1.47 1.19 2.93 1.79 4.4 1.24 3.04 2.48 6.08 3.71 9.12 1.85 4.56 3.73 9.12 5.61 13.7 0.45 1.1 0.45 1.1 0.92 2.23 0.6 1.47 1.21 2.93 1.82 4.4 4.02 9.73 8.01 19.5 11.9 29.2 4.79 12.1 9.87 24 15 35.9 0.76 1.76 1.52 3.53 2.27 5.3 1.85 4.33 3.72 8.64 5.62 13 6.95 15.9 11.9 30.9 6.05 48-4.99 12-11.9 23.1-20.3 32.9-1.55 1.91-3.09 3.82-4.63 5.74-17.1 21.2-17.1 21.2-23 26.8-6.67 6.48-14.2 14.9-15.4 24.4 0 24.3 30.8 56.5 45 75 0.56 0.74 1.13 1.48 1.7 2.23 10.4 13.5 21.2 26.5 32.7 39 2.33 2.52 4.61 5.08 6.89 7.66 7.71 8.59 15.9 17 24.7 24.4 2.48 2.13 4.88 4.35 7.29 6.57 5.4 4.92 11 9.59 16.7 14.1 0.67 0.53 1.33 1.06 2.02 1.6 9.8 7.74 19.7 15.3 30 22.4 0.68 0.47 1.35 0.94 2.05 1.42 18.2 12.5 37.5 23.2 57 33.6 0.63 0.34 1.26 0.67 1.9 1.02 10.5 5.57 21.5 10.3 32.4 15 4.05 1.77 8.07 3.58 12 5.51 10.5 4.94 20 7.47 31.7 5.44 3.29-1.75 3.29-1.75 6-4 0.67-0.5 1.34-1.01 2.02-1.53 5.76-4.9 10.3-10.6 15-16.5 4.26-5.27 8.53-10.5 13.1-15.6 4.18-4.66 8.07-9.51 11.9-14.4 0.87-1.09 1.73-2.19 2.6-3.28 2.81-3.57 5.61-7.14 8.4-10.7 0.43-0.55 0.87-1.1 1.31-1.66 1.25-1.61 2.51-3.22 3.76-4.84 0.4-0.52 0.81-1.05 1.23-1.59 2.16-2.81 4.24-5.65 6.23-8.58 4.71-6.9 9.17-13 16.5-17.3 0.62-0.37 1.25-0.75 1.89-1.14 8.51-4.17 18.4-0.22 26.8 2.6 6.35 2.2 12.5 4.49 18.4 7.58 3.07 1.55 6.24 2.87 9.4 4.21 6.39 2.75 12.6 5.76 18.8 8.91 3.87 1.96 7.75 3.74 11.8 5.34 4.41 1.79 8.58 3.85 12.8 6.13 6.26 3.42 12.6 6.56 19.1 9.62 0.98 0.47 1.96 0.94 2.98 1.42 3.04 1.45 6.09 2.89 9.14 4.33 13.9 6.61 27.8 13.3 41.6 20.2l4.8 2.37c25.3 12.4 25.3 12.4 30.6 24.4 2.02 11.1 1.1 22.5-0.25 33.6-0.13 1.13-0.27 2.25-0.41 3.41-3.76 30-10.7 61-31.3 84h-2c-0.27 0.64-0.53 1.28-0.81 1.94-1.19 2.06-1.19 2.06-4.19 3.06-0.27 0.58-0.55 1.16-0.84 1.75-1.61 3.13-4.05 5.05-6.72 7.25-0.85 0.72-0.85 0.72-1.72 1.44-11.1 9.14-23.2 17.5-35.7 24.6-1.16 0.67-1.16 0.67-2.34 1.35-21.7 12.3-44.8 21.4-69.7 24.6-0.78 0.12-1.57 0.23-2.38 0.35-81 11.2-161-21.4-234-54.1-2.61-1.17-5.23-2.31-7.86-3.45-13.4-5.81-26.1-12.6-38.9-19.8-1.46-0.82-1.46-0.82-2.96-1.65-2.83-1.59-5.65-3.18-8.47-4.78-0.84-0.47-1.67-0.95-2.53-1.43-5.51-3.16-10.8-6.57-16-10.1-1.38-0.91-2.76-1.83-4.15-2.75-16.6-11-33.1-22.1-48.8-34.2-0.6-0.46-1.21-0.93-1.84-1.41-7.52-5.8-14.9-11.8-22.1-18-2.77-2.36-5.61-4.64-8.45-6.92-6.41-5.21-12.4-10.9-18.4-16.6-2.56-2.39-5.16-4.74-7.76-7.1-6.41-5.86-12.6-11.9-18.7-18.1-1.12-1.12-2.25-2.25-3.38-3.37-2.34-2.33-4.68-4.67-7.01-7.01-2.97-2.96-5.94-5.92-8.92-8.88-2.32-2.31-4.64-4.63-6.96-6.95-1.09-1.09-2.19-2.18-3.28-3.27-6.15-6.11-12-12.3-17.4-19.1-2.48-3.09-5.14-5.96-7.87-8.83-4.45-4.75-8.66-9.63-12.7-14.7-2-2.47-4.06-4.9-6.14-7.32-6.47-7.53-12.5-15.4-18.5-23.3-1.62-2.14-3.25-4.26-4.88-6.38-11.1-14.4-22-29-32.2-44-3.24-4.78-6.55-9.49-9.94-14.2-4.58-6.34-8.67-12.9-12.7-19.6-0.66-1.05-1.32-2.11-2-3.19-7.78-12.5-14.4-25.7-21-38.8-0.57-1.12-0.57-1.12-1.15-2.26-14.1-28.1-23.8-58.8-28.8-89.7-0.12-0.74-0.25-1.48-0.38-2.25-0.71-4.24-1.22-8.47-1.62-12.8-0.06-0.72-0.13-1.44-0.2-2.19-2.48-28.8 0.72-59.1 9.2-86.8 0.35-1.16 0.69-2.33 1.05-3.53 9.54-30.5 26.5-57.9 48-81.5 1.24-1.39 2.47-2.78 3.69-4.18 0.58-0.66 1.15-1.31 1.75-1.99 1.32-1.54 2.58-3.15 3.81-4.76 12.6-15.1 31.3-23.6 50.2-26.9 0.76-0.13 1.51-0.27 2.29-0.4 0.72-0.11 1.44-0.23 2.18-0.34 0.64-0.1 1.27-0.2 1.92-0.3 2.11-0.09 2.11-0.09 4.81 0.38z" fill="#000100"/>
<path transform="translate(0)" d="m0 0h730v1c-0.83 0.1-1.67 0.2-2.52 0.3-14.5 1.76-29 3.54-43.5 5.76-0.98 0.15-1.96 0.3-2.97 0.46-36.4 5.71-73.1 13.3-108 24.9-2.93 0.94-5.89 1.75-8.86 2.56-8.2 2.31-16.2 5.15-24.2 8.03-1.93 0.7-3.86 1.39-5.79 2.07-14.7 5.18-29 11-43.3 17.2-0.77 0.33-1.55 0.67-2.35 1.01-14.9 6.5-29.7 13.3-44.2 20.8-0.92 0.48-0.92 0.48-1.86 0.97-22 11.4-43.5 23.6-64.4 37-1.61 1.02-3.21 2.05-4.82 3.07-8.52 5.46-16.9 11.1-25.2 16.9-0.71 0.5-1.42 1.01-2.15 1.52-8.04 5.73-16 11.5-23.7 17.7-2.17 1.77-4.37 3.48-6.59 5.19-4.31 3.34-8.54 6.78-12.8 10.2-1.82 1.49-3.64 2.98-5.46 4.46-11.1 9-21.9 18.3-32.3 28-2.78 2.59-5.62 5.12-8.48 7.63-3.33 2.98-6.25 6.05-9.07 9.51-2.26 2.55-4.87 4.64-7.46 6.84-2.81 2.55-5.19 5.4-7.58 8.34-0.48 0.49-0.96 0.99-1.45 1.5h-2c-0.24 0.57-0.47 1.13-0.71 1.71-1.58 2.81-3.52 4.63-5.85 6.85-4.49 4.39-8.44 9.01-12.4 13.9-1.8 2.17-3.63 4.13-5.65 6.08-4.26 4.12-7.8 8.78-11.4 13.4-1.27 1.58-2.54 3.17-3.81 4.75-5.11 6.38-10.2 12.8-15.2 19.2-0.43 0.55-0.86 1.1-1.31 1.67-6.46 8.28-12.6 16.7-18.7 25.3-0.6 0.85-1.21 1.7-1.83 2.58-16.2 22.8-32.2 46.7-44.4 72-1.89 3.74-3.9 7.4-5.93 11.1-5.98 10.8-11.5 21.8-16.7 33-1.13 2.39-2.32 4.75-3.53 7.11-3.17 6.32-5.99 12.8-8.79 19.3-0.28 0.66-0.56 1.31-0.86 1.99-17.1 39.6-30.1 80.3-40.3 122-0.66 2.7-1.33 5.39-2 8.09-22.9 92.7-27.1 191-13 290 0.31 2.2 0.63 4.4 0.94 6.6 2.5 17.6 5.68 35 9.61 52.3 0.77 3.4 1.53 6.8 2.27 10.2 2.56 11.5 5.42 22.8 8.92 34 2.23 7.17 4.17 14.4 6.13 21.7 1.48 5.39 3.17 10.4 5.45 15.5 0.63 1.99 1.24 3.99 1.81 6 1.67 5.54 3.66 10.9 5.85 16.2 1.75 4.27 3.38 8.56 4.96 12.9 8.98 24.3 19 48.6 31.4 71.3 2.43 4.43 4.63 8.97 6.84 13.5 1.74 3.52 3.58 6.94 5.59 10.3 0.42 0.7 0.84 1.4 1.26 2.13 0.8 1.33 1.61 2.65 2.45 3.95 4.02 6.74 3.31 13.2 1.48 20.5-0.6 2.22-1.21 4.43-1.84 6.65-0.33 1.2-0.65 2.4-0.99 3.64-0.89 3.22-1.78 6.44-2.68 9.66-0.93 3.34-1.85 6.7-2.77 10-2.12 7.71-4.26 15.4-6.41 23.1-0.54 1.95-1.08 3.9-1.63 5.85-1.7 6.15-3.41 12.3-5.13 18.4-2.66 9.53-5.18 19.1-7.63 28.7-2.6 10.1-5.43 20.1-8.27 30.2-2.37 8.35-4.67 16.7-6.9 25.1-2.37 8.86-4.84 17.7-7.38 26.5-4.23 14.7-8.16 29.5-12.1 44.2-7.85 29.7-7.85 29.7-11.8 43.2-1.74 6.02-3.41 12-5.05 18.1-0.53 1.95-1.06 3.89-1.59 5.83-0.4 1.47-0.4 1.47-0.81 2.97-1.23 4.55-2.48 9.09-3.72 13.6-0.98 3.59-1.96 7.19-2.95 10.8-0.25 0.95-0.51 1.89-0.78 2.86-3.28 12-6.53 24.1-9.72 36.1-2.97 11.2-6.17 22.4-9.62 33.5h-2v-1600z" fill="#FEFEFE"/>
</svg>
